<?xml version="1.0" standalone="no"?>
<!DOCTYPE svg PUBLIC "-//W3C//DTD SVG 20010904//EN"
 "http://www.w3.org/TR/2001/REC-SVG-20010904/DTD/svg10.dtd">
<svg version="1.0" xmlns="http://www.w3.org/2000/svg"
 width="1000.000000pt" height="1000.000000pt" viewBox="0 0 1000.000000 1000.000000"
 preserveAspectRatio="xMidYMid meet">
<metadata>
Created by potrace 1.11, written by Peter Selinger 2001-2013
</metadata>
<g transform="translate(0.000000,1000.000000) scale(0.100000,-0.100000)"
fill="#000000" stroke="none">
<path d="M5230 9449 c-535 -32 -1030 -154 -1535 -379 -491 -218 -611 -265
-875 -339 -143 -41 -368 -85 -510 -100 -123 -13 -399 -13 -520 -1 -245 25
-502 99 -719 206 -173 85 -362 211 -478 318 l-43 39 0 -66 c0 -157 48 -420
112 -612 77 -233 183 -418 323 -564 90 -94 162 -148 291 -220 l87 -49 -48 -8
c-131 -19 -408 16 -587 76 -171 57 -413 197 -564 327 -106 91 -98 99 -91 -88
7 -192 25 -307 71 -441 58 -170 101 -234 276 -407 85 -84 198 -186 251 -226
151 -116 213 -183 267 -290 83 -166 100 -304 78 -626 -58 -854 -48 -1195 50
-1704 187 -971 698 -1903 1402 -2559 294 -273 626 -507 977 -687 527 -271
1062 -429 1640 -484 188 -18 585 -20 765 -5 789 68 1519 339 2179 808 148 105
300 226 419 333 l50 46 -321 103 c-1419 454 -1423 456 -1536 521 -394 230
-757 548 -1018 894 -124 165 -257 384 -328 538 l-35 78 78 -68 c406 -358 887
-582 1437 -670 155 -25 571 -25 738 0 353 53 690 163 1046 341 61 31 116 54
121 51 19 -12 139 -173 213 -285 41 -63 106 -173 144 -244 58 -112 74 -133
112 -158 73 -46 171 -34 219 27 32 40 141 260 210 421 171 400 274 796 329
1269 22 191 25 729 5 910 -61 545 -188 986 -426 1480 -104 216 -181 349 -317
550 -438 649 -1041 1172 -1734 1506 -488 234 -964 370 -1489 424 -177 18 -526
25 -716 14z m2640 -1679 c340 -29 662 -110 953 -241 214 -95 507 -277 507
-314 0 -37 -59 -241 -106 -366 -307 -819 -874 -1519 -1637 -2023 -94 -62 -219
-140 -277 -173 -58 -33 -150 -85 -206 -116 -234 -133 -665 -298 -1074 -413
-213 -60 -788 -180 -801 -167 -15 16 -79 217 -118 370 -72 288 -86 407 -86
738 0 303 6 369 50 590 167 828 664 1483 1400 1845 432 213 931 310 1395 270z"/>
<path d="M7126 7074 c53 -134 97 -305 126 -489 26 -170 31 -522 10 -675 -32
-226 -88 -434 -153 -562 -16 -32 -29 -60 -29 -63 0 -10 89 -5 171 11 218 41
417 167 551 348 149 200 228 472 204 698 l-7 65 -53 1 c-165 1 -263 166 -192
319 14 29 34 58 45 65 12 7 21 18 21 23 0 20 -132 155 -195 200 -77 56 -208
117 -295 139 -36 9 -106 20 -157 23 l-91 6 44 -109z"/>
</g>
</svg>
