<svg id="MouseOff" xmlns="http://www.w3.org/2000/svg" xmlns:xlink="http://www.w3.org/1999/xlink" viewBox="0 0 1618.24 485.7"><defs><style>.cls-1{fill:#00c6f6;}.cls-2,.cls-6{fill:#ffd200;}.cls-3{fill:#fff;}.cls-3,.cls-4,.cls-5,.cls-6{fill-rule:evenodd;}.cls-4{fill:#3f3f3f;}.cls-5{fill:url(#linear-gradient);}.cls-7{fill:#333;}</style><linearGradient id="linear-gradient" x1="90.2" y1="525" x2="90.2" y2="282" gradientTransform="translate(0 -282)" gradientUnits="userSpaceOnUse"><stop offset="0.48" stop-color="#00c6f6"/><stop offset="0.88" stop-color="#7fe862"/></linearGradient></defs><path class="cls-1" d="M216.8,279.3a7.49,7.49,0,0,1-2.2-5.3V258.7a7.71,7.71,0,0,1,2.2-5.5,6.82,6.82,0,0,1,5.2-2.3h21.8a7.79,7.79,0,0,1,7.8,7.7V274a7.19,7.19,0,0,1-2.3,5.3,7.47,7.47,0,0,1-5.5,2.3H222A7.55,7.55,0,0,1,216.8,279.3Zm50,127.7a7.19,7.19,0,0,1-2.3-5.3v-143a7.79,7.79,0,0,1,7.7-7.8h66.3a6.82,6.82,0,0,1,5.2,2.3,8.15,8.15,0,0,1,2.2,5.5V274a7.49,7.49,0,0,1-2.2,5.3,6.82,6.82,0,0,1-5.2,2.3H296V401.7a7.69,7.69,0,0,1-7.5,7.5H272.3A7,7,0,0,1,266.8,407Z" transform="translate(0)"/><path class="cls-1" d="M368.4,407.1a6.82,6.82,0,0,1-2.3-5.2V331.4a7.69,7.69,0,0,1,7.5-7.5h66c18.1,0,27.2-6.8,27.2-20.5,0-7-2.4-12.5-7.2-16.4s-11.2-5.8-19.1-5.8H373.7a7.4,7.4,0,0,1-5.3-2.1,6.82,6.82,0,0,1-2.3-5.2V258.3a6.82,6.82,0,0,1,2.3-5.2,7,7,0,0,1,5.3-2.1h68.8c10.9,0,20.6,2.2,29,6.5a47.41,47.41,0,0,1,19.6,18.3c4.7,7.9,7,17.1,7,27.6,0,10.9-2.6,20.3-7.9,28.1s-12.8,13.4-22.5,16.7l32.4,49.6a7.39,7.39,0,0,1,1.3,4.1,6.77,6.77,0,0,1-2.3,5.1,7.19,7.19,0,0,1-5.3,2.3H474.4a6.86,6.86,0,0,1-6.3-3.5l-32.6-51.5H397.3V402a7,7,0,0,1-2.3,5.2,7.49,7.49,0,0,1-5.3,2.2H373.5A8.52,8.52,0,0,1,368.4,407.1Z" transform="translate(0)"/><path class="cls-1" d="M537.8,302.2l-27.4-39.5a7.49,7.49,0,0,1-1.3-4.3,7.28,7.28,0,0,1,7.1-7.5h20a7.54,7.54,0,0,1,6.3,3l27.6,39.7a7.54,7.54,0,0,1,.4,7.8,6.57,6.57,0,0,1-2.7,3,8,8,0,0,1-4,1.1H544.2A7.87,7.87,0,0,1,537.8,302.2Zm33.8,104.9a6.82,6.82,0,0,1-2.3-5.2V339.8a7.6,7.6,0,0,1,1.5-4.1l56.7-81.8q1.95-3,6.3-3h19.4a6.82,6.82,0,0,1,6.7,3.9,9.36,9.36,0,0,1,1.1,3.7,8.57,8.57,0,0,1-1.5,4.3l-58.7,84.8v54.3a6.82,6.82,0,0,1-2.3,5.2,7.49,7.49,0,0,1-5.3,2.2H577A7.73,7.73,0,0,1,571.6,407.1Z" transform="translate(0)"/><path class="cls-2" d="M689.1,394.6a76.25,76.25,0,0,1-20.8-28.2,95.55,95.55,0,0,1,0-73.5,76.6,76.6,0,0,1,20.8-28.3,68.14,68.14,0,0,1,31.4-14.8,5,5,0,0,1,1.7-.2,8.66,8.66,0,0,1,4.7,1.7,7,7,0,0,1,2.8,5.8V274a7.49,7.49,0,0,1-1.6,4.5,7,7,0,0,1-4,2.8,38.34,38.34,0,0,0-23.5,17.2c-5.5,8.8-8.2,19.1-8.2,31.1,0,12.2,2.7,22.6,8.2,31.1A40.68,40.68,0,0,0,724.1,378a9.4,9.4,0,0,1,4,2.8,6.72,6.72,0,0,1,1.6,4.3v17c0,2.7-.9,4.7-2.7,5.8a11.86,11.86,0,0,1-6.6,1.7A68.6,68.6,0,0,1,689.1,394.6Zm93.6-87.7a6.44,6.44,0,0,1-2.8-3.3,44.67,44.67,0,0,0-12.2-16,37.68,37.68,0,0,0-18-8,7.71,7.71,0,0,1-6.5-7.5V256.4a6.55,6.55,0,0,1,2.5-5.5,9.08,9.08,0,0,1,6.2-2,76.41,76.41,0,0,1,36.8,16.4,73,73,0,0,1,22.7,32.8,10.87,10.87,0,0,1,.4,2.6,6.79,6.79,0,0,1-2.3,5.5,7.31,7.31,0,0,1-5.3,2H786.9A9,9,0,0,1,782.7,306.9Zm-37,101.7a6.73,6.73,0,0,1-2.5-5.6V387.3a8.16,8.16,0,0,1,1.7-5,7.16,7.16,0,0,1,4.5-2.6,39.53,39.53,0,0,0,18.2-8.1,44.32,44.32,0,0,0,12.2-15.9,6.66,6.66,0,0,1,2.8-3.4,8.21,8.21,0,0,1,4.3-1.2h17.2a7.76,7.76,0,0,1,5.3,2,7.11,7.11,0,0,1,2.3,5.5,11.71,11.71,0,0,1-.4,2.6,71.54,71.54,0,0,1-22.7,33,74.23,74.23,0,0,1-36.9,16.2,8.72,8.72,0,0,1-6-1.8Z" transform="translate(0)"/><path class="cls-2" d="M833.8,407.1a6.82,6.82,0,0,1-2.3-5.2V331.4a7.69,7.69,0,0,1,7.5-7.5h66c18.1,0,27.2-6.8,27.2-20.5,0-7-2.4-12.5-7.2-16.4s-11.2-5.8-19.1-5.8H839a7.49,7.49,0,0,1-5.3-2.2,6.82,6.82,0,0,1-2.3-5.2V258.3a6.82,6.82,0,0,1,2.3-5.2A7,7,0,0,1,839,251h68.8c10.9,0,20.6,2.2,29,6.5a47.41,47.41,0,0,1,19.6,18.3c4.7,7.9,7,17.1,7,27.6,0,10.9-2.6,20.3-7.9,28.1s-12.8,13.4-22.5,16.7l32.3,49.6a7.39,7.39,0,0,1,1.3,4.1,6.77,6.77,0,0,1-2.3,5.1,7.19,7.19,0,0,1-5.3,2.3H939.6a6.86,6.86,0,0,1-6.3-3.5L901,354.2H862.8v47.7a7,7,0,0,1-2.3,5.2,7.49,7.49,0,0,1-5.3,2.2H839A8.33,8.33,0,0,1,833.8,407.1Z" transform="translate(0)"/><path class="cls-2" d="M1003.3,302.2l-27.4-39.5a7.49,7.49,0,0,1-1.3-4.3,7.3,7.3,0,0,1,7.2-7.5h20a7.54,7.54,0,0,1,6.3,3l27.6,39.7a7.54,7.54,0,0,1,.4,7.8,6.57,6.57,0,0,1-2.7,3,8,8,0,0,1-4,1.1h-19.6A7.92,7.92,0,0,1,1003.3,302.2ZM1037,407.1a6.82,6.82,0,0,1-2.3-5.2V339.8a7.6,7.6,0,0,1,1.5-4.1l56.7-81.8q1.95-3,6.3-3h19.4a6.82,6.82,0,0,1,6.7,3.9,9.36,9.36,0,0,1,1.1,3.7,8.25,8.25,0,0,1-1.5,4.3l-58.7,84.8v54.3a6.82,6.82,0,0,1-2.3,5.2,7.49,7.49,0,0,1-5.3,2.2h-16.2A8.1,8.1,0,0,1,1037,407.1Z" transform="translate(0)"/><path class="cls-2" d="M1141.5,407a7.49,7.49,0,0,1-2.2-5.3V335.4a7.49,7.49,0,0,1,2.2-5.3,6.82,6.82,0,0,1,5.2-2.3h63.4c17.8,0,26.7-7.8,26.7-23.3s-8.9-23.3-26.7-23.3h-63.4a6.82,6.82,0,0,1-5.2-2.3,7.49,7.49,0,0,1-2.2-5.3V258.3a7.49,7.49,0,0,1,2.2-5.3,6.82,6.82,0,0,1,5.2-2.3h64.7c11.2,0,21.1,2.2,29.7,6.7a47.47,47.47,0,0,1,19.8,18.9c4.7,8.1,7,17.5,7,28.1s-2.3,20-7,28.1a47.23,47.23,0,0,1-19.8,18.8c-8.6,4.4-18.4,6.6-29.7,6.6h-41v43.6a7.49,7.49,0,0,1-2.2,5.3,6.82,6.82,0,0,1-5.2,2.3h-16.4A6.38,6.38,0,0,1,1141.5,407Z" transform="translate(0)"/><path class="cls-2" d="M1273.1,279.3a7.49,7.49,0,0,1-2.2-5.3V258.7a7.71,7.71,0,0,1,2.2-5.5,6.82,6.82,0,0,1,5.2-2.3h21.8a7.79,7.79,0,0,1,7.8,7.7V274a7.19,7.19,0,0,1-2.3,5.3,7.47,7.47,0,0,1-5.5,2.3h-21.8A7.19,7.19,0,0,1,1273.1,279.3Zm50,127.7a7.19,7.19,0,0,1-2.3-5.3v-143a7.79,7.79,0,0,1,7.7-7.8h66.3a7,7,0,0,1,5.2,2.3,8.15,8.15,0,0,1,2.2,5.5V274a7.49,7.49,0,0,1-2.2,5.3,6.82,6.82,0,0,1-5.2,2.3h-42.5V401.7a7.71,7.71,0,0,1-7.6,7.5h-16.2A7,7,0,0,1,1323.1,407Z" transform="translate(0)"/><path class="cls-2" d="M1436.9,395.5a79.88,79.88,0,0,1-23.4-28.8,83.9,83.9,0,0,1-8.4-37.1,85.2,85.2,0,0,1,8.3-37.1,78.81,78.81,0,0,1,57.9-43.8q4,0,6,1.5a8.6,8.6,0,0,1,2.6,6.3v16.2a7.55,7.55,0,0,1-1.6,4.6,7.84,7.84,0,0,1-4.4,2.7,46.69,46.69,0,0,0-27.1,17.2c-6.7,8.7-10,19.6-10,32.4,0,12.5,3.3,23.2,9.9,32s15.7,14.6,27.2,17.4a7.84,7.84,0,0,1,4.4,2.7,7.16,7.16,0,0,1,1.6,4.6v16.2a7.32,7.32,0,0,1-2.5,5.9,9.08,9.08,0,0,1-6.2,2A77,77,0,0,1,1436.9,395.5Zm58.9,13a7.45,7.45,0,0,1-2.5-5.9V386.4a7.55,7.55,0,0,1,1.6-4.6,7.84,7.84,0,0,1,4.4-2.7c11.5-2.7,20.6-8.5,27.2-17.4s9.9-19.5,9.9-32c0-12.7-3.3-23.5-10-32.4a45.06,45.06,0,0,0-27.1-17.3,6.62,6.62,0,0,1-4.4-2.5,7.24,7.24,0,0,1-1.6-4.9V256.5a7.24,7.24,0,0,1,2.3-5.8,9.18,9.18,0,0,1,6.4-1.9,76.2,76.2,0,0,1,43.3,22.9,80.54,80.54,0,0,1,17.2,26.2,88.53,88.53,0,0,1-2.7,68.9,79.88,79.88,0,0,1-23.4,28.8,78.2,78.2,0,0,1-34.4,15A9.89,9.89,0,0,1,1495.8,408.5Z" transform="translate(0)"/><path class="cls-3" d="M179.9,160.5V0H100.7V81c0,43.8,35.4,79.8,79.2,80.9Z" transform="translate(0)"/><path class="cls-4" d="M136.7,65.1a16.18,16.18,0,1,1-12.3,19.3A16.22,16.22,0,0,1,136.7,65.1Z" transform="translate(0)"/><path class="cls-4" d="M261.1,30.1A102.07,102.07,0,0,0,184,.5c-1.5-.1-3-.1-4.5-.1V160.7a80.84,80.84,0,0,0,50.6-17.8l31,30.8a101.22,101.22,0,0,0,.5-143.1C261.5,30.4,261.3,30.3,261.1,30.1Z" transform="translate(0)"/><path class="cls-5" d="M100.7,81V0H81.9C37.1,0,.5,36.5.5,81V243c0-44.6,36.6-81,81.4-81h98C136.1,160.8,100.7,124.9,100.7,81Z" transform="translate(0)"/><path class="cls-6" d="M98,329.4c0-44.7,36.4-81,81.4-81V161.7h-98c-44.8,0-81.4,36.4-81.4,81v162c0,44.5,36.6,81,81.4,81h98V410.4C134.4,410.4,98,374.1,98,329.4Z" transform="translate(0)"/><path class="cls-7" d="M1581.42,251.78h-7.14v-3h17.6v3h-7.14v21.49h-3.32Z" transform="translate(0)"/><path class="cls-7" d="M1614.74,273.27l-2.31-18.52-6.65,12.71L1599,254.72l-2.31,18.55h-3.5l3.29-24.5h2.83l6.44,12.14,6.37-12.14H1615l3.26,24.5Z" transform="translate(0)"/></svg>